<svg width="14" height="14" viewBox="0 0 14 14" fill="none" xmlns="http://www.w3.org/2000/svg">
<path d="M13.6045 12.1017C14 12.5235 14 13.1827 13.6045 13.6045C13.1827 14 12.5235 14 12.1017 13.6045L8.96422 10.4407C7.88324 11.1525 6.56497 11.5217 5.14124 11.3371C2.71563 10.9944 0.764595 9.01695 0.448211 6.6177C0 3.03202 3.03202 0 6.6177 0.448211C9.01695 0.764595 10.9944 2.71563 11.3371 5.14124C11.5217 6.56497 11.1525 7.88324 10.4407 8.93785L13.6045 12.1017ZM2.50471 5.87947C2.50471 7.75141 4.00753 9.25424 5.87947 9.25424C7.72505 9.25424 9.25424 7.75141 9.25424 5.87947C9.25424 4.0339 7.72505 2.50471 5.87947 2.50471C4.00753 2.50471 2.50471 4.0339 2.50471 5.87947Z" fill="black"/>
</svg>
