<svg width="25" height="25" viewBox="0 0 25 25" fill="none" xmlns="http://www.w3.org/2000/svg">
<path d="M18.9325 22.9162C18.1079 22.9162 17.4069 22.6267 16.8297 22.0478C16.2524 21.4688 15.9638 20.7658 15.9638 19.9388C15.9638 19.823 15.9768 19.6814 16.0029 19.514C16.0289 19.3466 16.068 19.1959 16.12 19.062L8.22941 14.4787C7.969 14.7738 7.64782 15.0125 7.26587 15.1948C6.88393 15.3771 6.4933 15.4683 6.094 15.4683C5.26935 15.4683 4.56839 15.1796 3.99113 14.6024C3.41388 14.0251 3.12525 13.3242 3.12525 12.4995C3.12525 11.6748 3.41388 10.9739 3.99113 10.3966C4.56839 9.81938 5.26935 9.53075 6.094 9.53075C6.4933 9.53075 6.87525 9.60888 7.23983 9.76513C7.60442 9.92138 7.93428 10.1471 8.22941 10.4422L16.12 5.91096C16.068 5.7882 16.0289 5.65008 16.0029 5.49661C15.9768 5.34316 15.9638 5.19481 15.9638 5.05159C15.9638 4.22693 16.2524 3.52598 16.8297 2.94872C17.4069 2.37146 18.1079 2.08284 18.9325 2.08284C19.7572 2.08284 20.4581 2.37146 21.0354 2.94872C21.6127 3.52598 21.9013 4.22693 21.9013 5.05159C21.9013 5.87624 21.6127 6.57719 21.0354 7.15445C20.4581 7.73171 19.7572 8.02034 18.9325 8.02034C18.5271 8.02034 18.1393 7.95523 17.7691 7.82502C17.3989 7.69481 17.0836 7.48214 16.8232 7.187L8.93254 11.562C8.96726 11.7009 8.99764 11.8615 9.02369 12.0438C9.04973 12.2261 9.06275 12.3801 9.06275 12.5058C9.06275 12.6315 9.04973 12.7617 9.02369 12.8964C8.99764 13.0311 8.96726 13.1679 8.93254 13.3068L16.8232 17.786C17.0836 17.5429 17.3874 17.3476 17.7346 17.2C18.0818 17.0525 18.4811 16.9787 18.9325 16.9787C19.7572 16.9787 20.4581 17.2673 21.0354 17.8446C21.6127 18.4218 21.9013 19.1228 21.9013 19.9474C21.9013 20.7721 21.6127 21.473 21.0354 22.0503C20.4581 22.6275 19.7572 22.9162 18.9325 22.9162ZM18.9334 6.45784C19.3321 6.45784 19.666 6.32298 19.9351 6.05328C20.2042 5.78357 20.3388 5.44937 20.3388 5.05067C20.3388 4.65198 20.2039 4.31808 19.9342 4.04898C19.6645 3.77988 19.3303 3.64534 18.9316 3.64534C18.5329 3.64534 18.199 3.78019 17.9299 4.04989C17.6608 4.3196 17.5263 4.6538 17.5263 5.0525C17.5263 5.45119 17.6611 5.78509 17.9308 6.05419C18.2006 6.32329 18.5348 6.45784 18.9334 6.45784ZM6.09491 13.9058C6.49361 13.9058 6.82751 13.7709 7.0966 13.5012C7.3657 13.2315 7.50025 12.8973 7.50025 12.4986C7.50025 12.0999 7.3654 11.766 7.09569 11.4969C6.82599 11.2278 6.49178 11.0933 6.09309 11.0933C5.69439 11.0933 5.36049 11.2281 5.09139 11.4978C4.8223 11.7675 4.68775 12.1017 4.68775 12.5004C4.68775 12.8991 4.8226 13.233 5.09231 13.5021C5.36201 13.7712 5.69621 13.9058 6.09491 13.9058ZM18.9334 21.3537C19.3321 21.3537 19.666 21.2188 19.9351 20.9491C20.2042 20.6794 20.3388 20.3452 20.3388 19.9465C20.3388 19.5478 20.2039 19.2139 19.9342 18.9448C19.6645 18.6757 19.3303 18.5412 18.9316 18.5412C18.5329 18.5412 18.199 18.676 17.9299 18.9457C17.6608 19.2154 17.5263 19.5496 17.5263 19.9483C17.5263 20.347 17.6611 20.6809 17.9308 20.95C18.2006 21.2191 18.5348 21.3537 18.9334 21.3537Z" fill="#2FF0B1"/>
</svg>
