<svg width="32" height="32" viewBox="0 0 32 32" fill="none" xmlns="http://www.w3.org/2000/svg">
<path d="M10.0347 27.236C9.51071 27.4107 9.22755 27.977 9.4022 28.5009C9.57684 29.0249 10.1432 29.308 10.6671 29.1334L10.0347 27.236ZM18.6586 28.7386L18.5678 27.7427L18.6586 28.7386ZM23.6432 27.6309L24.0818 28.5296L23.6432 27.6309ZM28.4061 23.2981L27.629 22.6687L27.629 22.6687L28.4061 23.2981ZM25.1485 20.5871L25.8556 21.2942L25.1485 20.5871ZM22.955 22.7806L23.6621 23.4877L22.955 22.7806ZM16.997 22.7539C16.4447 22.7539 15.997 23.2017 15.997 23.7539C15.997 24.3062 16.4447 24.7539 16.997 24.7539V22.7539ZM27.8996 20.3147L27.3449 21.1467L27.8996 20.3147ZM12.0368 19.5879L12.484 20.4824L12.484 20.4823L12.0368 19.5879ZM17.9988 19.0425L18.2619 18.0778L17.9988 19.0425ZM20.3271 19.6775L20.064 20.6423H20.064L20.3271 19.6775ZM21.0648 22.4554L20.3577 21.7483L21.0648 22.4554ZM19.0592 23.0468C18.6686 23.4374 18.6686 24.0705 19.0592 24.4611C19.4497 24.8516 20.0828 24.8516 20.4734 24.4611L19.0592 23.0468ZM10.6671 29.1334C10.8877 29.0599 11.2775 29.0269 11.8894 29.0705C12.4808 29.1127 13.1665 29.2159 13.9342 29.3364C15.4108 29.5684 17.2132 29.8744 18.7493 29.7344L18.5678 27.7427C17.3347 27.855 15.814 27.6072 14.2445 27.3607C13.4891 27.242 12.721 27.1248 12.0316 27.0756C11.3627 27.0279 10.6448 27.0326 10.0347 27.236L10.6671 29.1334ZM18.7493 29.7344C19.7878 29.6398 20.6277 29.5979 21.4093 29.4564C22.2417 29.3058 23.0266 29.0445 24.0818 28.5296L23.2046 26.7322C22.2775 27.1846 21.6684 27.3771 21.0532 27.4884C20.3873 27.6089 19.726 27.6372 18.5678 27.7427L18.7493 29.7344ZM24.0818 28.5296C25.0809 28.042 26.0591 27.2474 26.9145 26.4255C27.7795 25.5944 28.5675 24.6877 29.1832 23.9275L27.629 22.6687C27.0445 23.3904 26.3138 24.2291 25.5288 24.9833C24.7342 25.7469 23.931 26.3777 23.2046 26.7322L24.0818 28.5296ZM24.4414 19.88L22.2478 22.0735L23.6621 23.4877L25.8556 21.2942L24.4414 19.88ZM20.6052 22.7539H16.997V24.7539H20.6052V22.7539ZM22.2478 22.0735C21.8122 22.5092 21.2213 22.7539 20.6052 22.7539V24.7539C21.7517 24.7539 22.8513 24.2985 23.6621 23.4877L22.2478 22.0735ZM28.4543 19.4826C27.193 18.6417 25.5134 18.808 24.4414 19.88L25.8556 21.2942C26.2535 20.8963 26.8768 20.8346 27.3449 21.1467L28.4543 19.4826ZM29.1832 23.9275C30.347 22.4905 29.9156 20.4568 28.4543 19.4826L27.3449 21.1467C27.9044 21.5197 27.9937 22.2184 27.629 22.6687L29.1832 23.9275ZM4.25857 19.2155H8.68934V17.2155H4.25857V19.2155ZM8.79703 19.3232V29.2924H10.797V19.3232H8.79703ZM8.68934 29.4001H4.25857V31.4001H8.68934V29.4001ZM4.15088 29.2924V19.3232H2.15088V29.2924H4.15088ZM4.25857 29.4001C4.19909 29.4001 4.15088 29.3519 4.15088 29.2924H2.15088C2.15088 30.4565 3.09453 31.4001 4.25857 31.4001V29.4001ZM8.79703 29.2924C8.79703 29.3519 8.74882 29.4001 8.68934 29.4001V31.4001C9.85338 31.4001 10.797 30.4565 10.797 29.2924H8.79703ZM8.68934 19.2155C8.74882 19.2155 8.79703 19.2637 8.79703 19.3232H10.797C10.797 18.1591 9.85339 17.2155 8.68934 17.2155V19.2155ZM4.25857 17.2155C3.09453 17.2155 2.15088 18.1591 2.15088 19.3232H4.15088C4.15088 19.2637 4.19909 19.2155 4.25857 19.2155V17.2155ZM10.7981 21.3253L12.484 20.4824L11.5896 18.6935L9.90367 19.5364L10.7981 21.3253ZM15.5044 19.7693H15.9587V17.7693H15.5044V19.7693ZM17.7357 20.0073L20.064 20.6423L20.5902 18.7128L18.2619 18.0778L17.7357 20.0073ZM20.3577 21.7483L19.0592 23.0468L20.4734 24.4611L21.7719 23.1625L20.3577 21.7483ZM20.064 20.6423C20.554 20.7759 20.7169 21.3891 20.3577 21.7483L21.7719 23.1625C23.2169 21.7175 22.5618 19.2505 20.5902 18.7128L20.064 20.6423ZM15.9587 19.7693C16.5589 19.7693 17.1566 19.8494 17.7357 20.0073L18.2619 18.0778C17.5113 17.8731 16.7367 17.7693 15.9587 17.7693V19.7693ZM12.484 20.4823C13.4218 20.0134 14.4559 19.7693 15.5044 19.7693V17.7693C14.1454 17.7693 12.8051 18.0857 11.5896 18.6935L12.484 20.4823ZM23.197 10.4616C23.197 12.3564 21.661 13.8924 19.7663 13.8924V15.8924C22.7656 15.8924 25.197 13.461 25.197 10.4616H23.197ZM19.7663 13.8924C17.8715 13.8924 16.3355 12.3564 16.3355 10.4616H14.3355C14.3355 13.461 16.7669 15.8924 19.7663 15.8924V13.8924ZM16.3355 10.4616C16.3355 8.56687 17.8715 7.03087 19.7663 7.03087V5.03087C16.7669 5.03087 14.3355 7.4623 14.3355 10.4616H16.3355ZM19.7663 7.03087C21.661 7.03087 23.197 8.56687 23.197 10.4616H25.197C25.197 7.4623 22.7656 5.03087 19.7663 5.03087V7.03087ZM15.3355 9.46164C13.4407 9.46164 11.9047 7.92563 11.9047 6.03087H9.90473C9.90473 9.0302 12.3362 11.4616 15.3355 11.4616V9.46164ZM11.9047 6.03087C11.9047 4.13611 13.4407 2.6001 15.3355 2.6001V0.600098C12.3362 0.600098 9.90473 3.03154 9.90473 6.03087H11.9047ZM15.3355 2.6001C17.2303 2.6001 18.7663 4.13611 18.7663 6.03087H20.7663C20.7663 3.03154 18.3348 0.600098 15.3355 0.600098V2.6001Z" fill="#2FF0B1"/>
</svg>
