<svg width="32" height="32" viewBox="0 0 32 32" fill="none" xmlns="http://www.w3.org/2000/svg">
<path d="M22.6667 11.9998V9.33317C22.6667 8.62593 22.3857 7.94765 21.8856 7.44755C21.3855 6.94746 20.7072 6.6665 20 6.6665H6.66667C5.95942 6.6665 5.28115 6.94746 4.78105 7.44755C4.28095 7.94765 4 8.62593 4 9.33317V17.3332C4 18.0404 4.28095 18.7187 4.78105 19.2188C5.28115 19.7189 5.95942 19.9998 6.66667 19.9998H9.33333M12 11.9998H25.3333C26.8061 11.9998 28 13.1937 28 14.6665V22.6665C28 24.1393 26.8061 25.3332 25.3333 25.3332H12C10.5272 25.3332 9.33333 24.1393 9.33333 22.6665V14.6665C9.33333 13.1937 10.5272 11.9998 12 11.9998ZM21.3333 18.6665C21.3333 20.1393 20.1394 21.3332 18.6667 21.3332C17.1939 21.3332 16 20.1393 16 18.6665C16 17.1937 17.1939 15.9998 18.6667 15.9998C20.1394 15.9998 21.3333 17.1937 21.3333 18.6665Z" stroke="#2FF0B1" stroke-width="2" stroke-linecap="round" stroke-linejoin="round"/>
</svg>
