<svg width="24" height="27" viewBox="0 0 24 27" fill="none" xmlns="http://www.w3.org/2000/svg">
<path d="M21.0938 3.375C22.4648 3.375 23.625 4.53516 23.625 5.90625V24.4688C23.625 25.8926 22.4648 27 21.0938 27H2.53125C1.10742 27 0 25.8926 0 24.4688V5.90625C0 4.53516 1.10742 3.375 2.53125 3.375H5.0625V0.632812C5.0625 0.316406 5.32617 0 5.69531 0H7.80469C8.12109 0 8.4375 0.316406 8.4375 0.632812V3.375H15.1875V0.632812C15.1875 0.316406 15.4512 0 15.8203 0H17.9297C18.2461 0 18.5625 0.316406 18.5625 0.632812V3.375H21.0938ZM20.7773 24.4688C20.9355 24.4688 21.0938 24.3633 21.0938 24.1523V8.4375H2.53125V24.1523C2.53125 24.3633 2.63672 24.4688 2.84766 24.4688H20.7773Z" fill="#2FF0B1"/>
</svg>
