<svg width="24" height="24" viewBox="0 0 24 24" fill="none" xmlns="http://www.w3.org/2000/svg">
<path d="M15.8953 23.6532C16.575 23.4141 17.0625 22.9172 17.2922 22.2329L17.3906 21.9422L17.3906 12C17.3906 2.06255 17.3906 2.05786 17.2922 1.76724C17.0906 1.16724 16.6875 0.717236 16.0875 0.431299L15.7266 0.257861L14.3297 0.243799L12.9375 0.229736L12.9375 11.9954L12.9375 23.7657H14.2594C15.5297 23.7657 15.6 23.761 15.8953 23.6532Z" fill="#FBC102"/>
<path d="M10.6875 21.511V19.2563L9.57187 19.2798C8.15625 19.3079 7.88906 19.3782 7.34531 19.8751C6.83906 20.3345 6.60938 20.8595 6.60938 21.5345C6.60938 22.5282 7.20469 23.3532 8.14219 23.6673C8.40469 23.7563 8.54531 23.7657 9.5625 23.7657H10.6875V21.511Z" fill="#FBC102"/>
<path d="M10.6875 2.48906V0.234375L9.5625 0.234375C8.55 0.234375 8.40469 0.24375 8.14688 0.332812C7.5375 0.534375 7.0875 0.942187 6.80625 1.5375C6.65625 1.85625 6.63281 1.94531 6.61875 2.34844C6.59063 3.06094 6.75469 3.51562 7.2375 4.02187C7.50938 4.30781 7.73438 4.45781 8.1375 4.59844C8.38125 4.6875 8.54531 4.70156 9.54844 4.72031L10.6875 4.74375V2.48906Z" fill="#FBC102"/>
</svg>
