<svg width="34" height="23" viewBox="0 0 34 23" fill="none" xmlns="http://www.w3.org/2000/svg">
<path d="M9.1226 0.758242C14.0749 0.758242 18.1583 4.19008 18.1583 8.40385C18.1583 12.6611 14.0749 16.0495 9.1226 16.0495C8.29722 16.0495 7.51528 15.9626 6.73334 15.7888C5.43012 16.6142 3.51872 17.4396 1.12946 17.4396C0.695055 17.4396 0.304087 17.2224 0.173764 16.7879C0 16.397 0.0434409 15.9626 0.347527 15.615C0.390968 15.615 1.34667 14.5725 2.04172 13.1823C0.825378 11.8791 0.0868819 10.2284 0.0868819 8.40385C0.0868819 4.19008 4.12689 0.758242 9.1226 0.758242ZM7.2112 13.7471C7.86281 13.9208 8.47098 13.9643 9.1226 13.9643C12.9454 13.9643 16.0731 11.4882 16.0731 8.40385C16.0731 5.36298 12.9454 2.84341 9.1226 2.84341C5.25635 2.84341 2.17205 5.36298 2.17205 8.40385C2.17205 9.96772 2.91054 11.0972 3.56216 11.7488L4.60474 12.8348L3.90968 14.1815C3.73592 14.4421 3.56216 14.7462 3.38839 15.0503C4.17033 14.8331 4.90883 14.4856 5.64732 14.0077L6.38582 13.5733L7.2112 13.7471ZM19.2443 6.36212C24.0663 6.53589 27.8891 9.88084 27.8891 13.9643C27.8891 15.7888 27.1071 17.4396 25.8908 18.7428C26.5859 20.1329 27.5416 21.1755 27.585 21.1755C27.8891 21.523 27.9325 21.9574 27.7588 22.3484C27.6284 22.7828 27.2375 23 26.8031 23C24.4138 23 22.5024 22.1746 21.1992 21.3492C20.4172 21.523 19.6353 21.6099 18.8534 21.6099C15.2912 21.6099 12.2069 19.8723 10.7299 17.3527C11.4684 17.2658 12.2069 17.092 12.8585 16.8314C14.0749 18.4821 16.2904 19.5247 18.8534 19.5247C19.4615 19.5247 20.0697 19.4813 20.7213 19.3075L21.5467 19.1338L22.2852 19.5682C23.0237 20.046 23.7622 20.3935 24.5441 20.6107C24.3704 20.3067 24.1966 20.0026 24.0228 19.7419L23.3278 18.3953L24.3704 17.3092C25.022 16.6576 25.8039 15.5282 25.8039 13.9643C25.8039 11.0972 23.0237 8.75137 19.505 8.44729L19.5484 8.40385C19.5484 7.70879 19.4181 7.01374 19.2443 6.36212Z" fill="white"/>
<circle cx="30.922" cy="2.52747" r="2.52747" fill="#FF0000"/>
</svg>
