<svg width="24" height="24" viewBox="0 0 24 24" fill="none" xmlns="http://www.w3.org/2000/svg">
<path d="M15.8953 23.6529C16.575 23.4139 17.0625 22.917 17.2922 22.2326L17.3906 21.942L17.3906 11.9998C17.3906 2.0623 17.3906 2.05762 17.2922 1.76699C17.0906 1.16699 16.6875 0.716992 16.0875 0.431055L15.7266 0.257617L14.3297 0.243555L12.9375 0.229492L12.9375 11.9951L12.9375 23.7654H14.2594C15.5297 23.7654 15.6 23.7607 15.8953 23.6529Z" fill="#FF0000"/>
<path d="M10.6875 21.5105V19.2559L9.57187 19.2793C8.15625 19.3074 7.88906 19.3777 7.34531 19.8746C6.83906 20.334 6.60938 20.859 6.60938 21.534C6.60938 22.5277 7.20469 23.3527 8.14219 23.6668C8.40469 23.7559 8.54531 23.7652 9.5625 23.7652H10.6875V21.5105Z" fill="#FF0000"/>
<path d="M10.6875 2.48906V0.234375L9.5625 0.234375C8.55 0.234375 8.40469 0.24375 8.14688 0.332812C7.5375 0.534375 7.0875 0.942187 6.80625 1.5375C6.65625 1.85625 6.63281 1.94531 6.61875 2.34844C6.59063 3.06094 6.75469 3.51562 7.2375 4.02187C7.50938 4.30781 7.73438 4.45781 8.1375 4.59844C8.38125 4.6875 8.54531 4.70156 9.54844 4.72031L10.6875 4.74375V2.48906Z" fill="#FF0000"/>
</svg>
