<svg width="17" height="20" viewBox="0 0 17 20" fill="none" xmlns="http://www.w3.org/2000/svg">
<path d="M16.4348 9.47826C16.1739 9.73913 15.8261 9.86957 15.4783 9.86957C15.087 9.86957 14.7391 9.73913 14.4783 9.47826L9.91304 4.91304V18.2174C9.91304 19 9.26087 19.6087 8.52174 19.6087C7.82609 19.6087 7.13043 19 7.13043 18.2174V4.91304L2.52174 9.47826C2 10.0435 1.08696 10.0435 0.565217 9.47826C0 8.95652 0 8.04348 0.565217 7.52174L7.52174 0.565217C8.04348 0 8.95652 0 9.47826 0.565217L16.4348 7.52174C17 8.04348 17 8.95652 16.4348 9.47826Z" fill="#131413"/>
</svg>
