<svg width="24" height="24" viewBox="0 0 24 24" fill="none" xmlns="http://www.w3.org/2000/svg">
<path d="M8.10469 0.346825C7.425 0.585888 6.9375 1.08276 6.70781 1.76714L6.60938 2.05776V12C6.60938 21.9375 6.60938 21.9421 6.70781 22.2328C6.90938 22.8328 7.3125 23.2828 7.9125 23.5687L8.27344 23.7421L9.67031 23.7562L11.0625 23.7703V12.0046V0.234325H9.74063C8.47031 0.234325 8.4 0.239014 8.10469 0.346825Z" fill="#FBC102"/>
<path d="M13.3125 2.48897V4.74365L14.4281 4.72021C15.8438 4.69209 16.1109 4.62178 16.6547 4.1249C17.1609 3.66553 17.3906 3.14053 17.3906 2.46553C17.3906 1.47178 16.7953 0.646778 15.8578 0.332715C15.5953 0.243653 15.4547 0.234278 14.4375 0.234278H13.3125V2.48897Z" fill="#FBC102"/>
<path d="M13.3125 21.5109V23.7656H14.4375C15.45 23.7656 15.5953 23.7563 15.8531 23.6672C16.4625 23.4656 16.9125 23.0578 17.1937 22.4625C17.3437 22.1438 17.3672 22.0547 17.3812 21.6516C17.4094 20.9391 17.2453 20.4844 16.7625 19.9781C16.4906 19.6922 16.2656 19.5422 15.8625 19.4016C15.6187 19.3125 15.4547 19.2984 14.4516 19.2797L13.3125 19.2563V21.5109Z" fill="#FBC102"/>
</svg>
