<svg width="20" height="20" viewBox="0 0 20 20" fill="none" xmlns="http://www.w3.org/2000/svg">
<path d="M0 4.325V0H4.325V1.5H1.5V4.325H0ZM0 20V15.675H1.5V18.5H4.325V20H0ZM15.675 20V18.5H18.5V15.675H20V20H15.675ZM18.5 4.325V1.5H15.675V0H20V4.325H18.5ZM15.7 15.725H17.275V17.3H15.7V15.725ZM15.7 12.575H17.275V14.15H15.7V12.575ZM14.125 14.15H15.7V15.725H14.125V14.15ZM12.55 15.725H14.125V17.3H12.55V15.725ZM10.975 14.15H12.55V15.725H10.975V14.15ZM14.125 11H15.7V12.575H14.125V11ZM12.55 12.575H14.125V14.15H12.55V12.575ZM10.975 11H12.55V12.575H10.975V11ZM17.275 2.7V9H10.975V2.7H17.275ZM9 11V17.3H2.7V11H9ZM9 2.7V9H2.7V2.7H9ZM7.75 16.05V12.25H3.95V16.05H7.75ZM7.75 7.75V3.95H3.95V7.75H7.75ZM16.025 7.75V3.95H12.225V7.75H16.025Z" fill="#2FF0B1"/>
</svg>
