<svg width="16" height="16" viewBox="0 0 16 16" fill="none" xmlns="http://www.w3.org/2000/svg">
<path d="M4.0001 4.0001V6.8001M12.0001 4.0001V6.8001M11.6001 9.6001H13.2001C13.8628 9.6001 14.4001 9.06284 14.4001 8.4001V2.8001C14.4001 2.13736 13.8628 1.6001 13.2001 1.6001H2.8001C2.13736 1.6001 1.6001 2.13736 1.6001 2.8001V8.4001C1.6001 9.06284 2.13736 9.6001 2.8001 9.6001H4.4001M5.73672 12.1372L7.99946 14.4M7.99946 14.4L10.1098 12.2897M7.99946 14.4L7.99956 9.77173M9.6001 5.6001C9.6001 6.48375 8.88375 7.2001 8.0001 7.2001C7.11644 7.2001 6.4001 6.48375 6.4001 5.6001C6.4001 4.71644 7.11644 4.0001 8.0001 4.0001C8.88375 4.0001 9.6001 4.71644 9.6001 5.6001Z" stroke="#FBC102" stroke-linecap="round" stroke-linejoin="round"/>
</svg>
