<svg width="19" height="10" viewBox="0 0 19 10" fill="none" xmlns="http://www.w3.org/2000/svg">
<path d="M3.63592 6.3631V3.81765M10.9086 6.3631V3.81765M14.5454 3.5L13.0905 4.90856M13.0905 4.90856L14.5454 6.5M13.0905 4.90856H17.5454M13.0905 7.04501V7.45401C13.0905 8.05651 12.602 8.54492 11.9996 8.54492L2.54501 8.54492C1.94252 8.54492 1.4541 8.05651 1.4541 7.45401L1.4541 2.3631C1.4541 1.76061 1.94252 1.27219 2.54501 1.27219H3.99956L7.27228 1.27219H10.545H11.9996C12.602 1.27219 13.0905 1.76061 13.0905 2.3631V2.83866M8.72683 4.90856C8.72683 4.10523 8.07561 3.45401 7.27228 3.45401C6.46896 3.45401 5.81774 4.10523 5.81774 4.90856C5.81774 5.71188 6.46896 6.3631 7.27228 6.3631C8.07561 6.3631 8.72683 5.71188 8.72683 4.90856Z" stroke="#2FF0B1" stroke-linecap="round" stroke-linejoin="round"/>
</svg>
