<svg width="24" height="12" viewBox="0 0 24 12" fill="none" xmlns="http://www.w3.org/2000/svg">
<path d="M6.35131 12C6.23063 12 6.12001 11.9821 6.01945 11.9462C5.91889 11.9103 5.81833 11.8475 5.71776 11.7578L0.257228 6.88789C0.0762157 6.72646 -0.00926232 6.52466 0.000793913 6.28251C0.0108501 6.04036 0.0963281 5.84753 0.257228 5.70404C0.458353 5.52466 0.674562 5.43946 0.905855 5.44843C1.13715 5.4574 1.3433 5.5426 1.52431 5.70404L6.35131 10.009L7.64856 11.1659L6.98485 11.7578C6.88429 11.8475 6.78372 11.9103 6.68316 11.9462C6.5826 11.9821 6.47198 12 6.35131 12ZM11.48 12C11.3593 12 11.2487 11.9821 11.1481 11.9462C11.0476 11.9103 10.947 11.8475 10.8464 11.7578L5.38591 6.88789C5.2049 6.72646 5.11439 6.52915 5.11439 6.29596C5.11439 6.06278 5.2049 5.86547 5.38591 5.70404C5.56692 5.5426 5.7781 5.46188 6.01945 5.46188C6.2608 5.46188 6.47198 5.5426 6.65299 5.70404L11.48 10.009L22.4312 0.242152C22.6122 0.0807175 22.8284 0 23.0799 0C23.3313 0 23.5475 0.0807175 23.7285 0.242152C23.9095 0.403587 24 0.596413 24 0.820628C24 1.04484 23.9095 1.23767 23.7285 1.3991L12.1135 11.7578C12.013 11.8475 11.9124 11.9103 11.8118 11.9462C11.7113 11.9821 11.6007 12 11.48 12ZM11.48 7.74888L10.1827 6.59193L17.3025 0.242152C17.4836 0.0807175 17.6998 0 17.9512 0C18.2026 0 18.4188 0.0807175 18.5998 0.242152C18.7808 0.403587 18.8713 0.596413 18.8713 0.820628C18.8713 1.04484 18.7808 1.23767 18.5998 1.3991L11.48 7.74888Z" fill="#FFC107"/>
</svg>
