<svg width="25" height="21" viewBox="0 0 25 21" fill="none" xmlns="http://www.w3.org/2000/svg">
<path fill-rule="evenodd" clip-rule="evenodd" d="M6.6947 1.95328C6.59379 2.06161 6.48541 2.18033 6.34069 2.34052C6.34069 2.34052 3.95646 4.96569 3.9485 4.97326C3.87453 5.05047 3.81297 5.11649 3.74916 5.18629C3.71984 5.21854 3.69375 5.24692 3.63814 5.30711C3.59032 5.35887 3.56818 5.3829 3.54062 5.41307L1.38489 7.78773C1.33862 7.84054 1.29893 7.88501 1.24788 7.94143L1.18976 8.00571C1.12394 8.07827 1.07187 8.13732 0.998272 8.22177C0.829454 8.40507 0.658271 8.61235 0.49708 8.82973C0.347308 9.00545 0.226394 9.20857 0.139824 9.43005L0.116951 9.49706C-0.0389836 10.0282 -0.0389836 10.5999 0.116951 11.1311L0.140831 11.2007C0.228057 11.4216 0.349614 11.624 0.499953 11.7988C0.660464 12.0158 0.831523 12.2231 1.01238 12.4198C1.05043 12.465 1.10649 12.528 1.18138 12.6104C1.23309 12.6673 1.25535 12.6918 1.28307 12.7226C1.31889 12.7624 1.34985 12.7971 1.37858 12.8299L3.54 15.2125C3.64709 15.3303 3.69502 15.3827 3.78079 15.4747C3.85129 15.5514 3.89302 15.5961 3.97027 15.6745L6.34282 18.2888C6.52065 18.4845 6.60042 18.5719 6.70098 18.6806C6.83168 18.8244 6.91784 18.9174 7.05243 19.0622C7.10313 19.121 7.12213 19.1426 7.14813 19.1693C7.45187 19.5051 7.82235 19.8019 8.22803 20.0297C8.63411 20.2547 9.06464 20.4111 9.50899 20.4955C9.92531 20.571 10.3407 20.6112 10.7572 20.617C10.9338 20.6213 11.111 20.6239 11.286 20.6247L11.7029 20.6247H19.4588C19.6198 20.6247 19.7794 20.6222 20.0006 20.6169C20.4146 20.6113 20.8342 20.5708 21.2492 20.4958C21.7025 20.4097 22.136 20.2519 22.5414 20.0265C22.9522 19.7979 23.3271 19.4989 23.6521 19.1406C23.9758 18.7831 24.2464 18.3731 24.4549 17.9246C24.6613 17.4726 24.8042 16.9946 24.8811 16.5015C24.9498 16.0391 24.9864 15.5778 24.9914 15.1154C24.9945 15.0018 24.996 14.9018 24.9984 14.6791L25 14.5365L25.0001 13.8338V6.05436L24.9989 5.93129C24.9975 5.79404 24.9969 5.7341 24.9957 5.65719C24.9945 5.58506 24.9932 5.51889 24.9915 5.45514C24.9868 5.01056 24.9506 4.55329 24.8834 4.10094C24.806 3.60577 24.6644 3.1319 24.4621 2.68847C24.2526 2.23793 23.9838 1.83094 23.6629 1.47679C23.3418 1.12101 22.9698 0.823332 22.562 0.596172C22.1596 0.372235 21.7295 0.215437 21.2855 0.130783C20.8672 0.055931 20.4517 0.0159978 20.0352 0.00999717C19.8466 0.00497279 19.6726 0.00229249 19.5054 0.00229249C19.3365 0.000385902 19.1968 0 18.8832 0H11.9088C11.5975 0 11.4569 0.000387813 11.2804 0.0023307C11.1204 0.00229249 10.947 0.0049556 10.7481 0.0101462C10.3395 0.0160493 9.9247 0.0559883 9.51425 0.129487C9.06282 0.215576 8.63233 0.372205 8.22965 0.5956C7.82095 0.824706 7.45027 1.12188 7.12887 1.47746C7.11398 1.49358 7.10308 1.5062 7.01208 1.61308C6.8992 1.73085 6.79539 1.8421 6.6947 1.95328ZM3.99543 4.92996L3.99802 4.92774C3.9949 4.93032 3.99272 4.93212 3.99003 4.93458L3.99543 4.92996ZM7.32513 17.2088L4.9272 14.5665C4.9272 14.5665 4.87937 14.5186 4.87439 14.5139C4.83739 14.4751 4.80556 14.4408 4.72606 14.3544C4.66868 14.2931 4.62403 14.2443 4.52239 14.1325L2.36964 11.7596C2.34439 11.7306 2.30923 11.6912 2.26933 11.6469C2.2397 11.614 2.21577 11.5876 2.16333 11.5299C2.09741 11.4574 2.05008 11.4042 2.00595 11.3526C1.83739 11.1686 1.69468 10.9949 1.56119 10.8128L1.51544 10.7563C1.48012 10.7168 1.45054 10.6717 1.42769 10.6225C1.37557 10.4204 1.3757 10.2062 1.42809 10.0041C1.45097 9.95401 1.48071 9.90801 1.51632 9.86774L1.55838 9.8156C1.69261 9.63309 1.83592 9.45889 1.98765 9.29382C2.06895 9.20092 2.11594 9.14763 2.15148 9.108L2.19878 9.05615L2.23202 9.01949C2.28851 8.95706 2.33368 8.90645 2.37704 8.85676L4.52162 6.49459C4.54516 6.46882 4.5651 6.44718 4.62146 6.38617C4.67018 6.33344 4.69839 6.30276 4.72965 6.26836C4.77802 6.21546 4.8256 6.1643 4.87232 6.115C4.88259 6.10556 4.89454 6.09337 4.92858 6.05864L7.32441 3.41903C7.46583 3.2625 7.56984 3.14856 7.67165 3.03917C7.76955 2.93117 7.86404 2.82991 7.96397 2.72563C7.98612 2.70288 7.99935 2.68766 8.06052 2.61625C8.09234 2.5791 8.10781 2.5612 8.10887 2.56005C8.33124 2.31407 8.58234 2.11276 8.85745 1.95854C9.13525 1.80444 9.43501 1.69537 9.74441 1.63634C10.0801 1.57627 10.4265 1.54292 10.7737 1.53787C10.9697 1.5328 11.1325 1.5303 11.2874 1.5303C11.4646 1.52839 11.6021 1.52801 11.9088 1.52801H18.8832C19.1921 1.52801 19.3287 1.52838 19.4984 1.53026C19.6604 1.5303 19.8237 1.53281 20.0094 1.53772C20.3649 1.54289 20.7121 1.57624 21.0555 1.63767C21.3568 1.69516 21.6556 1.80408 21.935 1.95955C22.21 2.11275 22.4611 2.31368 22.6785 2.55455C22.8985 2.79743 23.0821 3.0753 23.2234 3.37925C23.3619 3.68283 23.4606 4.01297 23.5138 4.35362C23.5688 4.72424 23.599 5.10516 23.6031 5.48695C23.6049 5.55753 23.6061 5.61739 23.6072 5.68345C23.6083 5.75598 23.6089 5.81377 23.6102 5.94773L23.6114 6.06353L23.6114 6.73929V14.5197L23.6098 14.661C23.6075 14.8747 23.6061 14.9687 23.603 15.0837C23.5986 15.4831 23.5681 15.8681 23.5115 16.249C23.4586 16.5875 23.3588 16.9214 23.2162 17.2337C23.0757 17.5361 22.8902 17.8171 22.6688 18.0617C22.4485 18.3045 22.1938 18.5076 21.9149 18.6628C21.6326 18.8198 21.3304 18.9298 21.0185 18.989C20.6779 19.0506 20.3278 19.0844 19.9769 19.0891C19.7584 19.0943 19.6078 19.0967 19.4588 19.0967H11.2887C11.1251 19.096 10.9562 19.0935 10.7812 19.0892C10.428 19.0843 10.0821 19.0508 9.73997 18.9888C9.43602 18.931 9.1363 18.8222 8.85592 18.6668C8.58368 18.5139 8.33201 18.3123 8.11353 18.0713C8.10046 18.0572 8.08232 18.0365 8.05938 18.0099L8.05679 18.0069C8.00183 17.9432 7.98952 17.9289 7.97655 17.9152L7.96099 17.8991C7.88161 17.8171 7.80404 17.7334 7.67855 17.5953C7.57753 17.4861 7.49969 17.4008 7.32513 17.2088ZM12.305 14.3557C12.2486 14.4171 12.1812 14.4672 12.105 14.502C11.8723 14.608 11.6044 14.5494 11.4262 14.3534C11.309 14.2248 11.2431 14.0502 11.2431 13.868C11.2431 13.6859 11.309 13.5113 11.4262 13.3827V13.3842C11.4597 13.3474 11.4964 13.3153 11.5355 13.2884L14.2384 10.3106L11.4262 7.21984L11.4352 7.20995C11.3792 7.14789 11.3336 7.07351 11.302 6.98954C11.2056 6.73345 11.2589 6.43868 11.437 6.24269C11.5539 6.11324 11.7129 6.04045 11.8788 6.04045C12.0446 6.04045 12.2036 6.11324 12.3206 6.24269H12.3178C12.348 6.2759 12.3746 6.31196 12.3975 6.35018L15.118 9.34165L17.8461 6.33617C17.8671 6.30261 17.8913 6.27065 17.9184 6.24077C18.0965 6.04476 18.3644 5.98612 18.5972 6.09219C18.8299 6.19826 18.9817 6.44816 18.9817 6.72535C18.9817 6.90968 18.9146 7.08194 18.8012 7.20786L18.8082 7.21564L15.999 10.3105L18.7176 13.2998C18.751 13.3245 18.7825 13.3528 18.8114 13.3846L18.81 13.3861C18.9881 13.5821 19.0414 13.8769 18.945 14.133C18.8486 14.3891 18.6215 14.5561 18.3696 14.5561C18.202 14.5561 18.0455 14.4822 17.931 14.3574L17.9257 14.3633L15.1197 11.2792L12.3161 14.3679L12.305 14.3557Z" fill="white"/>
</svg>
