<svg width="17" height="10" viewBox="0 0 17 10" fill="none" xmlns="http://www.w3.org/2000/svg">
<path d="M12.9998 6.3631V3.81765M5.7271 6.3631V3.81765M2.09082 3.18137L0.499911 4.90856M0.499911 4.90856L2.09082 6.3631M0.499911 4.90856H4.36355M3.54528 7.04501V7.45401C3.54528 8.05651 4.03369 8.54492 4.63619 8.54492L14.0907 8.54492C14.6932 8.54492 15.1816 8.05651 15.1816 7.45401V2.3631C15.1816 1.76061 14.6932 1.27219 14.0907 1.27219H12.6362L9.36346 1.27219H6.09073H4.63619C4.03369 1.27219 3.54528 1.76061 3.54528 2.3631V2.83866M7.90891 4.90856C7.90891 4.10523 8.56014 3.45401 9.36346 3.45401C10.1668 3.45401 10.818 4.10523 10.818 4.90856C10.818 5.71188 10.1668 6.3631 9.36346 6.3631C8.56014 6.3631 7.90891 5.71188 7.90891 4.90856Z" stroke="#2FF0B1" stroke-linecap="round" stroke-linejoin="round"/>
</svg>
