<svg width="18" height="20" viewBox="0 0 18 20" fill="none" xmlns="http://www.w3.org/2000/svg">
<path d="M16.875 1.25C17.1875 1.25 17.5 1.5625 17.5 1.875V3.125C17.5 3.47656 17.1875 3.75 16.875 3.75H0.625C0.273438 3.75 0 3.47656 0 3.125V1.875C0 1.5625 0.273438 1.25 0.625 1.25H5.3125L5.66406 0.546875C5.82031 0.234375 6.13281 0 6.48438 0H10.9766C11.3281 0 11.6406 0.234375 11.7969 0.546875L12.1875 1.25H16.875ZM2.07031 18.2422L1.25 5H16.25L15.3906 18.2422C15.3516 19.2578 14.5312 20 13.5156 20H3.94531C2.92969 20 2.10938 19.2578 2.07031 18.2422Z" fill="#87867B"/>
</svg>
