<svg width="30" height="30" viewBox="0 0 30 30" fill="none" xmlns="http://www.w3.org/2000/svg">
<circle cx="15" cy="15.0002" r="15" transform="rotate(90.0252 15 15.0002)" fill="white"/>
<circle cx="15" cy="15.0002" r="15" transform="rotate(90.0252 15 15.0002)" fill="white"/>
<path d="M24.9981 15.7535L18.12 22.6254C17.6042 23.1838 16.7018 23.1834 16.1864 22.6246C15.6281 22.1087 15.6285 21.2064 16.1873 20.691L20.701 16.1383L7.50962 16.1325C6.77915 16.1322 6.13488 15.5303 6.13522 14.7569C6.13555 14.0264 6.78036 13.3822 7.51083 13.3825L20.7022 13.3883L16.1925 8.8746C15.6341 8.35873 15.6345 7.45639 16.1934 6.94101C16.7092 6.38264 17.6116 6.38304 18.1269 6.94186L24.9989 13.8199C25.5573 14.3358 25.5569 15.2381 24.9981 15.7535Z" fill="#131413"/>
</svg>
