<svg width="32" height="32" viewBox="0 0 32 32" fill="none" xmlns="http://www.w3.org/2000/svg">
<path d="M8.00019 8.0002V13.6002M24.0002 8.0002V13.6002M23.2002 19.2002H26.4002C27.7257 19.2002 28.8002 18.1257 28.8002 16.8002V5.6002C28.8002 4.27471 27.7257 3.2002 26.4002 3.2002H5.60019C4.27471 3.2002 3.2002 4.27471 3.2002 5.6002V16.8002C3.2002 18.1257 4.27471 19.2002 5.60019 19.2002H8.80019M11.4734 24.2744L15.9989 28.7999M15.9989 28.7999L20.2195 24.5793M15.9989 28.7999L15.9991 19.5435M19.2002 11.2002C19.2002 12.9675 17.7675 14.4002 16.0002 14.4002C14.2329 14.4002 12.8002 12.9675 12.8002 11.2002C12.8002 9.43289 14.2329 8.0002 16.0002 8.0002C17.7675 8.0002 19.2002 9.43289 19.2002 11.2002Z" stroke="#2FF0B1" stroke-width="2" stroke-linecap="round" stroke-linejoin="round"/>
</svg>
