<svg width="32" height="32" viewBox="0 0 32 32" fill="none" xmlns="http://www.w3.org/2000/svg">
<circle cx="16" cy="16" r="15.5" stroke="#FFC107"/>
<path d="M11.6359 17.8631V15.3176M18.9086 17.8631V15.3176M22.5454 15L21.0905 16.4086M21.0905 16.4086L22.5454 18M21.0905 16.4086H25.5454M21.0905 18.545V18.954C21.0905 19.5565 20.602 20.0449 19.9996 20.0449H10.545C9.94252 20.0449 9.4541 19.5565 9.4541 18.954V13.8631C9.4541 13.2606 9.94252 12.7722 10.545 12.7722H11.9996H15.2723H18.545H19.9996C20.602 12.7722 21.0905 13.2606 21.0905 13.8631V14.3387M16.7268 16.4086C16.7268 15.6052 16.0756 14.954 15.2723 14.954C14.469 14.954 13.8177 15.6052 13.8177 16.4086C13.8177 17.2119 14.469 17.8631 15.2723 17.8631C16.0756 17.8631 16.7268 17.2119 16.7268 16.4086Z" stroke="#FFC107" stroke-linecap="round" stroke-linejoin="round"/>
</svg>
