<svg width="18" height="18" viewBox="0 0 18 18" fill="none" xmlns="http://www.w3.org/2000/svg">
<path d="M5.51329 13.2375C5.43829 13.2375 5.36954 13.225 5.30704 13.2C5.24454 13.175 5.18204 13.1313 5.11954 13.0688L1.72579 9.675C1.61329 9.5625 1.56016 9.42188 1.56641 9.25313C1.57266 9.08438 1.62579 8.95 1.72579 8.85C1.85079 8.725 1.98516 8.66563 2.12891 8.67188C2.27266 8.67813 2.40079 8.7375 2.51329 8.85L5.51329 11.85L6.31954 12.6563L5.90704 13.0688C5.84454 13.1313 5.78204 13.175 5.71954 13.2C5.65704 13.225 5.58829 13.2375 5.51329 13.2375ZM8.70079 13.2375C8.62579 13.2375 8.55704 13.225 8.49454 13.2C8.43204 13.175 8.36954 13.1313 8.30704 13.0688L4.91329 9.675C4.80079 9.5625 4.74454 9.425 4.74454 9.2625C4.74454 9.1 4.80079 8.9625 4.91329 8.85C5.02579 8.7375 5.15704 8.68125 5.30704 8.68125C5.45704 8.68125 5.58829 8.7375 5.70079 8.85L8.70079 11.85L15.507 5.04375C15.6195 4.93125 15.7539 4.875 15.9102 4.875C16.0664 4.875 16.2008 4.93125 16.3133 5.04375C16.4258 5.15625 16.482 5.29063 16.482 5.44688C16.482 5.60313 16.4258 5.7375 16.3133 5.85L9.09454 13.0688C9.03204 13.1313 8.96954 13.175 8.90704 13.2C8.84454 13.225 8.77579 13.2375 8.70079 13.2375ZM8.70079 10.275L7.89454 9.46875L12.3195 5.04375C12.432 4.93125 12.5664 4.875 12.7227 4.875C12.8789 4.875 13.0133 4.93125 13.1258 5.04375C13.2383 5.15625 13.2945 5.29063 13.2945 5.44688C13.2945 5.60313 13.2383 5.7375 13.1258 5.85L8.70079 10.275Z" fill="#5FA3FB"/>
</svg>
