<svg width="37" height="22" viewBox="0 0 37 22" fill="none" xmlns="http://www.w3.org/2000/svg">
<path d="M8.00019 8.0002V13.6002M24.0002 8.0002V13.6002M32 15L35.5 11.2002M35.5 11.2002L32 8.0002M35.5 11.2002H27M28.8002 6.5V5.6002C28.8002 4.27471 27.7257 3.2002 26.4002 3.2002H5.60019C4.27471 3.2002 3.2002 4.27471 3.2002 5.6002V16.8002C3.2002 18.1257 4.27471 19.2002 5.60019 19.2002H8.80019H16.0002H23.2002H26.4002C27.7257 19.2002 28.8002 18.1257 28.8002 16.8002V15.754M19.2002 11.2002C19.2002 12.9675 17.7675 14.4002 16.0002 14.4002C14.2329 14.4002 12.8002 12.9675 12.8002 11.2002C12.8002 9.43288 14.2329 8.0002 16.0002 8.0002C17.7675 8.0002 19.2002 9.43288 19.2002 11.2002Z" stroke="#2FF0B1" stroke-width="2" stroke-linecap="round" stroke-linejoin="round"/>
</svg>
