<svg width="28" height="22" viewBox="0 0 28 22" fill="none" xmlns="http://www.w3.org/2000/svg">
<path d="M3.86719 13.3203C3.82422 13.4062 3.78125 13.4922 3.69531 13.5352C3.60938 13.75 3.48047 13.9219 3.39453 14.1367C4.125 13.9648 4.8125 13.6641 5.5 13.3633C5.71484 13.2773 5.88672 13.1914 6.05859 13.1055C6.48828 12.8906 6.91797 12.8477 7.39062 12.9336C7.90625 13.0195 8.42188 13.0625 9.02344 13.0625C13.1484 13.0625 15.8984 10.3125 15.8984 7.5625C15.8984 4.85547 13.1484 2.0625 9.02344 2.0625C4.85547 2.0625 2.14844 4.85547 2.14844 7.5625C2.14844 8.76562 2.62109 9.92578 3.52344 10.9141C4.16797 11.5586 4.29688 12.5039 3.86719 13.3203ZM0.0859375 7.5625C0.0859375 3.39453 4.08203 0 9.02344 0C13.9219 0 17.9609 3.39453 17.9609 7.5625C17.9609 11.7734 13.9219 15.125 9.02344 15.125C8.29297 15.125 7.64844 15.082 6.96094 14.9531C6.78906 15.0391 6.57422 15.168 6.35938 15.2539C4.8125 15.9414 2.96484 16.5 1.11719 16.5C0.6875 16.5 0.300781 16.2852 0.128906 15.8984C0 15.5117 0.0429688 15.082 0.34375 14.7812C0.945312 14.0938 1.46094 13.3203 1.93359 12.5469C1.97656 12.4609 2.01953 12.375 2.01953 12.332C0.816406 11.043 0.0859375 9.36719 0.0859375 7.5625ZM18.6484 20.625C15.125 20.625 12.0742 18.9062 10.6133 16.4141C11.3438 16.2852 12.0742 16.1133 12.7617 15.8984C13.8789 17.4453 15.9844 18.5625 18.6055 18.5625C19.207 18.5625 19.7227 18.5195 20.2383 18.4336C20.7109 18.3477 21.1406 18.3906 21.5703 18.6055C21.7422 18.6914 21.9141 18.7773 22.1289 18.8633C22.8164 19.1641 23.5039 19.4219 24.2344 19.6367C24.1484 19.4219 24.0195 19.25 23.9336 19.0352C23.8906 18.9492 23.8047 18.8633 23.7617 18.7773C23.375 18.0039 23.5039 17.0586 24.1055 16.4141C25.0078 15.4258 25.5234 14.2656 25.5234 13.0625C25.5234 10.5273 23.0742 7.90625 19.3359 7.60547V7.5625C19.3359 6.875 19.207 6.1875 19.0352 5.54297C23.8047 5.71484 27.5859 9.02344 27.5859 13.0625C27.5859 14.8672 26.8125 16.543 25.6094 17.832C25.6094 17.918 25.6523 17.9609 25.6953 18.0469C26.168 18.8203 26.6836 19.5938 27.2852 20.2812C27.5859 20.582 27.6289 21.0117 27.5 21.3984C27.3281 21.7852 26.9414 22 26.5547 22C24.707 22 22.8164 21.4414 21.2695 20.7539C21.0547 20.668 20.8398 20.5391 20.668 20.4531C19.9805 20.582 19.3359 20.625 18.6484 20.625Z" fill="white"/>
</svg>
